0
SECTION
2
HEADER
9
$ACADVER
1
AC1009
9
$INSUNITS
70
4
0
ENDSEC
0
SECTION
2
TABLES
0
TABLE
2
LTYPE
70
1
0
LTYPE
2
CONTINUOUS
70
0
3
Solid line
72
65
73
0
40
0.0
0
ENDTAB
0
TABLE
2
LAYER
70
1
0
LAYER
2
CUT
70
0
62
7
6
CONTINUOUS
0
ENDTAB
0
ENDSEC
0
SECTION
2
ENTITIES
0
LINE
8
CUT
10
0.0000
20
6.0000
30
0.0
11
46.0000
21
6.0000
31
0.0
0
LINE
8
CUT
10
0.0000
20
-6.0000
30
0.0
11
46.0000
21
-6.0000
31
0.0
0
ARC
8
CUT
10
0.0000
20
0.0000
30
0.0
40
6.0000
50
90.0000
51
270.0000
0
ARC
8
CUT
10
46.0000
20
0.0000
30
0.0
40
6.0000
50
-90.0000
51
90.0000
0
CIRCLE
8
CUT
10
0.0000
20
0.0000
30
0.0
40
2.5250
0
CIRCLE
8
CUT
10
46.0000
20
0.0000
30
0.0
40
1.6500
0
CIRCLE
8
CUT
10
11.0000
20
3.9795
30
0.0
40
1.0000
0
ARC
8
CUT
10
0.0000
20
0.0000
30
0.0
40
9.6500
50
-16.1269
51
16.1269
0
ARC
8
CUT
10
0.0000
20
0.0000
30
0.0
40
6.3500
50
-16.1269
51
16.1269
0
ARC
8
CUT
10
7.6852
20
2.2221
30
0.0
40
1.6500
50
16.1269
51
196.1269
0
ARC
8
CUT
10
7.6852
20
-2.2221
30
0.0
40
1.6500
50
163.8731
51
343.8731
0
ENDSEC
0
EOF
